<?xml version="1.0" encoding="UTF-8" standalone="no"?>
<!DOCTYPE svg PUBLIC "-//W3C//DTD SVG 20010904//EN"
              "http://www.w3.org/TR/2001/REC-SVG-20010904/DTD/svg10.dtd">

<svg xmlns="http://www.w3.org/2000/svg"
     width="3.47222in" height="6.25in"
     viewBox="0 0 250 450">
  <path id="Auswahl #1"
        fill="#ffa000" stroke="white" stroke-width="2"
        d="M 145.58,69.43
           C 149.25,65.36 160.98,66.76 165.96,63.99
             170.66,61.38 171.94,55.77 173.29,51.00
             173.92,48.77 175.04,45.31 174.31,43.06
             172.88,38.62 167.75,38.83 164.00,39.29
             154.18,40.47 143.72,45.10 134.00,41.44
             127.42,38.96 125.23,34.54 122.49,34.31
             120.24,34.12 114.10,37.80 112.00,39.00
             112.00,39.00 89.00,52.15 89.00,52.15
             81.02,54.74 77.78,49.54 74.00,48.55
             67.78,46.92 61.27,57.51 55.00,58.65
             48.58,59.81 44.35,52.97 40.00,52.06
             35.37,51.09 21.84,57.82 18.09,60.78
             10.31,66.94 12.32,75.03 15.96,83.00
             23.52,99.58 32.15,104.56 50.00,104.99
             50.00,104.99 64.91,103.48 64.91,103.48
             68.78,104.35 71.08,109.10 67.57,111.91
             65.15,113.84 60.95,113.96 58.00,114.00
             41.78,114.19 28.11,114.18 16.21,100.96
             12.27,96.58 9.78,91.17 7.08,86.00
             2.41,77.05 -0.84,65.75 6.28,57.01
             13.06,48.68 28.05,39.04 39.00,38.38
             44.37,38.05 48.46,40.72 52.00,40.11
             52.00,40.11 67.00,33.22 67.00,33.22
             75.44,30.58 76.04,32.68 83.00,33.84
             87.23,34.55 92.41,31.04 96.00,29.00
             101.89,25.65 115.52,18.13 122.00,18.08
             125.69,18.05 129.05,19.15 131.96,21.41
             134.64,23.50 136.45,26.90 140.04,27.25
             142.21,27.46 148.35,25.70 151.00,25.29
             161.60,23.66 174.20,23.05 182.99,30.34
             194.19,39.64 192.65,50.50 188.66,63.00
             187.51,66.58 186.33,71.04 183.73,73.79
             181.39,76.25 172.41,80.51 169.04,81.33
             169.04,81.33 163.72,82.08 163.72,82.08
             161.41,82.65 159.42,83.92 157.00,84.12
             154.86,84.30 152.13,83.46 150.00,83.00
             150.00,83.00 149.48,101.99 149.48,101.99
             148.35,105.76 145.14,108.34 141.13,106.93
             136.51,105.30 136.60,98.65 131.91,98.39
             132.18,98.41 119.26,101.20 114.00,100.82
             106.84,100.30 97.94,97.84 92.00,93.78
             87.43,90.65 76.20,78.80 85.11,74.21
             90.86,71.25 95.42,77.54 99.09,80.67
             103.47,84.40 110.30,86.42 116.00,85.32
             130.79,82.47 128.56,69.31 143.00,76.00
             143.58,73.93 144.13,71.04 145.58,69.43 Z
           M 138.00,109.38
           C 144.25,108.63 147.54,112.86 150.42,112.63
             154.42,112.30 163.01,100.27 171.85,107.86
             172.96,108.81 173.82,109.76 174.37,111.13
             174.90,112.45 174.85,115.40 175.00,117.00
             161.19,124.34 149.45,140.07 145.00,154.80
             147.21,154.65 148.72,154.29 151.00,154.80
             158.75,155.69 173.13,164.98 176.60,172.01
             179.37,177.63 178.58,183.19 180.47,189.00
             182.59,195.56 183.78,194.17 185.25,203.00
             186.20,208.78 185.61,226.22 180.72,229.93
             175.63,233.80 164.84,235.31 160.10,238.22
             156.10,240.69 156.29,243.39 150.00,247.44
             139.18,254.40 120.86,257.87 109.00,251.76
             98.60,246.41 93.15,237.13 88.26,227.00
             86.43,223.22 82.83,216.07 89.11,214.31
             102.96,210.45 103.21,228.13 112.18,236.38
             121.71,245.13 126.23,240.52 137.00,239.00
             138.01,233.27 143.03,233.31 148.00,231.16
             163.27,224.58 170.64,226.79 172.85,212.00
             172.93,210.45 173.36,206.51 172.85,205.10
             171.15,198.31 159.28,206.08 157.02,196.95
             155.48,190.70 161.60,190.11 166.00,190.00
             165.46,185.96 164.89,180.50 162.77,177.04
             158.92,170.71 152.17,168.80 147.21,164.90
             144.22,162.55 143.85,160.51 141.61,158.98
             141.61,158.98 133.94,156.00 133.94,156.00
             133.94,156.00 133.94,161.83 133.94,161.83
             132.71,175.96 118.83,161.15 115.00,158.00
             115.62,162.67 118.06,174.02 112.85,176.80
             110.75,177.64 107.32,177.14 105.00,176.80
             104.32,179.29 104.32,179.69 102.82,181.70
             101.26,183.79 98.64,186.77 95.95,187.19
             92.61,187.71 88.57,185.40 86.00,183.47
             81.01,179.71 73.51,172.51 69.00,168.00
             69.00,168.00 63.00,162.00 63.00,162.00
             60.46,159.46 55.86,155.11 54.32,152.00
             50.35,143.99 60.09,141.31 68.00,147.39
             68.00,147.39 77.00,155.00 77.00,155.00
             75.46,152.08 71.65,145.97 71.38,143.00
             71.06,139.46 73.32,137.56 72.77,134.00
             72.77,134.00 68.90,123.00 68.90,123.00
             67.98,118.98 68.32,114.12 73.03,112.66
             76.99,111.43 78.73,115.20 80.30,118.00
             83.92,124.45 86.86,130.63 88.00,138.00
             94.72,136.39 95.84,137.41 102.00,140.00
             102.00,140.00 103.57,131.00 103.57,131.00
             104.66,124.58 105.13,121.32 113.00,123.80
             114.38,124.24 115.65,124.82 116.82,125.70
             116.82,125.70 124.00,134.00 124.00,134.00
             124.69,126.36 129.06,110.46 138.00,109.38 Z
           M 84.00,140.00
           C 84.00,140.00 88.00,144.00 88.00,144.00
             88.00,144.00 88.00,139.00 88.00,139.00
             88.00,139.00 84.00,140.00 84.00,140.00 Z
           M 77.00,155.00
           C 77.00,155.00 78.00,156.00 78.00,156.00
             78.00,156.00 78.00,155.00 78.00,155.00
             78.00,155.00 77.00,155.00 77.00,155.00 Z
           M 78.00,156.00
           C 78.00,156.00 79.00,157.00 79.00,157.00
             79.00,157.00 79.00,156.00 79.00,156.00
             79.00,156.00 78.00,156.00 78.00,156.00 Z
           M 110.78,192.78
           C 109.85,191.45 109.47,189.79 109.98,188.22
             110.98,185.15 117.14,183.74 120.00,182.68
             127.65,179.85 136.44,175.09 143.94,181.31
             145.58,182.67 147.03,184.44 147.43,186.58
             147.96,189.39 144.69,202.67 142.57,204.36
             139.17,207.08 133.07,203.83 130.88,200.87
             129.40,198.88 128.73,196.33 128.00,194.00
             123.13,195.83 114.43,198.00 110.78,192.78 Z
           M 43.00,186.02
           C 53.73,183.54 56.32,183.98 67.00,184.00
             71.93,184.01 77.75,184.48 81.30,188.49
             84.60,192.23 84.15,197.20 78.20,197.00
             78.53,199.96 79.51,204.08 78.20,206.96
             76.99,210.62 73.16,212.05 70.00,213.87
             70.00,213.87 58.00,222.01 58.00,222.01
             54.43,224.64 49.38,230.27 45.00,230.32
             39.31,230.39 32.32,222.40 34.42,217.01
             35.57,214.06 40.55,210.25 43.00,208.00
             29.95,207.87 26.01,203.59 26.00,191.00
             26.00,191.00 43.00,186.02 43.00,186.02 Z
           M 21.01,235.70
           C 22.66,233.89 28.71,235.25 31.00,235.70
             38.51,236.63 55.53,239.03 61.12,243.83
             64.67,246.89 71.17,254.90 65.69,259.07
             63.12,261.01 58.11,260.97 55.00,261.00
             57.74,270.77 52.46,272.84 49.00,281.00
             52.26,279.75 56.46,278.00 60.00,278.43
             66.64,279.22 73.19,286.01 71.56,293.00
             70.27,298.51 58.10,313.26 54.00,318.00
             55.88,318.82 58.22,319.75 59.87,320.97
             70.58,328.90 54.60,337.53 49.00,342.00
             56.43,338.81 67.47,334.07 74.66,340.51
             76.81,342.43 77.97,345.11 77.74,348.00
             77.28,353.67 70.28,361.32 67.00,366.00
             70.39,364.21 78.86,358.93 82.00,358.48
             86.75,357.80 95.32,361.33 94.72,368.00
             94.17,374.07 86.70,377.66 87.85,384.00
             88.32,386.55 90.08,388.56 89.21,392.00
             87.96,396.92 79.85,404.53 76.11,408.28
             74.01,410.39 72.07,412.46 69.00,413.09
             63.60,414.20 57.36,408.02 56.43,403.00
             56.00,400.66 56.60,398.30 57.00,396.00
             57.00,396.00 47.00,404.61 47.00,404.61
             37.85,411.54 29.37,401.53 30.22,394.00
             31.38,383.75 46.04,366.11 51.00,356.00
             45.81,353.86 42.70,353.29 44.00,347.00
             38.75,350.02 27.34,360.67 22.00,359.53
             15.60,358.16 11.36,348.88 13.24,343.00
             17.00,331.20 28.74,318.80 36.00,308.00
             25.14,312.84 15.96,322.54 7.62,308.00
             6.11,305.36 4.79,303.07 6.03,300.01
             6.94,297.77 13.06,291.23 15.00,289.00
             15.00,289.00 33.00,267.00 33.00,267.00
             25.35,264.75 14.62,252.40 24.00,246.00
             22.58,243.79 18.77,238.45 21.01,235.70 Z
           M 211.35,303.57
           C 208.36,306.66 204.06,305.53 202.91,301.89
             202.91,301.89 204.10,284.00 204.10,284.00
             204.30,281.77 204.24,280.15 203.05,278.17
             203.05,278.17 188.00,262.09 188.00,262.09
             185.61,259.71 182.80,257.66 182.53,254.00
             181.92,245.83 193.47,247.30 198.00,250.57
             201.95,253.43 214.65,269.50 216.84,274.00
             216.84,274.00 219.00,281.00 219.00,281.00
             219.97,279.34 220.45,278.08 222.22,277.02
             227.38,273.94 244.71,278.96 246.03,288.00
             246.79,293.23 241.54,300.11 236.22,297.65
             232.56,295.96 234.07,292.45 227.00,289.00
             226.82,292.93 226.73,298.25 221.99,299.38
             220.37,299.76 219.19,299.54 217.95,298.41
             217.00,297.55 215.70,295.16 215.00,294.00
             214.38,297.05 213.58,301.27 211.35,303.57 Z
           M 87.37,284.00
           C 88.36,281.81 91.73,272.77 92.81,271.75
             95.89,268.84 101.49,271.98 101.25,277.00
             101.25,277.00 93.84,297.91 93.84,297.91
             93.95,302.19 103.29,306.97 100.25,313.74
             98.88,316.79 95.65,316.72 93.41,314.65
             90.51,311.96 88.73,305.84 88.00,302.00
             88.00,302.00 85.00,303.00 85.00,303.00
             85.00,303.00 83.00,299.00 83.00,299.00
             72.52,304.67 73.39,311.26 71.49,314.85
             70.71,316.33 69.30,317.80 67.27,316.83
             64.37,315.16 65.90,309.44 67.27,307.00
             70.12,300.46 75.32,294.58 83.00,296.00
             84.91,289.49 84.53,290.30 87.37,284.00 Z
           M 191.59,282.04
           C 195.66,289.55 197.89,295.33 198.00,304.00
             198.23,323.60 200.04,335.66 192.95,355.00
             191.58,358.74 190.08,362.85 187.61,366.00
             181.62,373.63 167.93,381.16 159.00,385.14
             152.84,387.89 145.77,391.67 139.00,391.96
             134.77,392.14 129.34,391.79 127.93,386.96
             127.39,385.71 127.42,384.44 127.93,383.28
             129.76,380.22 134.93,380.07 138.00,379.24
             141.47,378.31 153.82,373.30 157.00,371.56
             160.90,369.43 166.70,366.43 169.87,363.53
             172.03,361.56 173.43,359.33 175.15,357.00
             184.46,344.47 185.83,331.13 186.00,316.00
             186.08,309.46 186.93,303.57 185.24,297.00
             183.58,290.54 178.19,282.32 182.73,276.01
             187.61,274.31 189.54,278.25 191.59,282.04 Z
           M 85.54,309.00
           C 87.37,319.33 74.83,314.52 80.60,307.29
             81.72,305.89 82.56,305.74 84.00,305.00
             84.63,306.37 85.27,307.46 85.54,309.00 Z
           M 168.90,338.64
           C 163.05,341.61 148.28,331.30 158.13,323.03
             167.45,320.04 178.71,333.66 168.90,338.64 Z
           M 46.00,344.00
           C 46.00,344.00 47.00,345.00 47.00,345.00
             47.00,345.00 47.00,344.00 47.00,344.00
             47.00,344.00 46.00,344.00 46.00,344.00 Z
           M 151.18,410.00
           C 151.70,402.86 154.15,396.85 158.36,391.09
             162.02,386.07 169.73,380.56 173.00,389.00
             187.87,380.86 193.20,385.69 200.93,399.00
             202.96,402.49 206.56,409.83 204.66,413.85
             201.96,419.56 192.65,415.66 188.00,416.18
             182.51,416.80 182.32,421.13 179.45,423.01
             178.17,423.84 176.51,423.99 175.03,423.76
             169.62,422.92 168.46,416.38 167.00,412.00
             167.00,412.00 165.00,412.00 165.00,412.00
             164.21,415.18 164.04,421.02 160.66,422.19
             158.95,423.08 154.11,422.17 152.00,422.19
             152.00,422.19 151.18,410.00 151.18,410.00 Z
           M 163.00,403.80
           C 163.00,403.80 172.00,403.80 172.00,403.80
             172.00,403.80 180.00,406.21 180.00,406.21
             180.00,406.21 191.00,406.21 191.00,406.21
             190.53,401.82 187.85,393.86 182.96,393.12
             177.75,392.34 175.63,398.48 172.00,391.00
             165.13,394.46 164.49,396.70 163.00,403.80 Z
           M 122.93,409.00
           C 125.50,415.60 125.47,425.29 117.00,427.45
             113.53,428.33 111.02,426.46 108.00,426.88
             105.06,427.29 103.49,429.41 100.04,428.98
             97.84,428.70 95.94,426.99 94.00,426.98
             91.70,426.97 87.97,430.26 84.47,427.97
             81.63,426.12 80.29,420.20 80.09,417.00
             79.29,404.18 89.88,398.11 101.00,395.47
             112.01,393.94 118.89,398.63 122.93,409.00 Z
           M 91.00,414.00
           C 91.00,414.00 113.00,414.00 113.00,414.00
             113.00,414.00 106.00,403.00 106.00,403.00
             97.86,406.44 94.08,403.61 91.00,414.00 Z" />
</svg>
