<?xml version="1.0" encoding="UTF-8" standalone="no"?>
<!DOCTYPE svg PUBLIC "-//W3C//DTD SVG 20010904//EN"
              "http://www.w3.org/TR/2001/REC-SVG-20010904/DTD/svg10.dtd">

<svg xmlns="http://www.w3.org/2000/svg"
     width="4.86111in" height="6.25in"
     viewBox="0 0 350 450">
  <path id="Auswahl"
        fill="#ffa000" stroke="white" stroke-width="2"
        d="M 93.88,123.00
           C 93.88,123.00 88.13,89.00 88.13,89.00
             88.13,89.00 82.79,54.00 82.79,54.00
             82.79,54.00 82.79,46.00 82.79,46.00
             82.79,46.00 83.78,27.00 83.78,27.00
             83.78,27.00 82.80,22.02 82.80,22.02
             81.91,15.93 90.36,14.17 94.96,15.32
             99.05,16.34 99.98,19.86 103.18,22.46
             105.22,24.11 111.77,27.25 116.82,31.59
             130.48,43.33 139.00,63.90 143.37,81.00
             144.83,86.71 146.93,94.26 147.00,100.00
             147.19,116.13 146.14,127.27 142.10,143.00
             140.37,149.77 136.14,156.71 128.00,154.35
             124.70,153.40 120.53,150.78 120.37,146.96
             120.24,143.87 123.65,139.38 124.91,136.00
             127.45,129.15 128.28,123.11 129.28,116.00
             130.20,109.57 130.97,109.29 131.00,102.00
             131.06,88.60 127.13,74.46 122.42,62.00
             118.65,52.00 111.44,39.51 102.00,34.00
             102.00,63.67 114.95,87.16 115.16,120.00
             115.16,120.00 115.16,136.00 115.16,136.00
             115.23,138.16 116.12,141.79 115.16,143.70
             113.79,147.87 108.66,148.35 105.00,147.01
             105.00,147.01 99.00,144.00 99.00,144.00
             99.25,138.62 95.32,129.04 93.88,123.00 Z
           M 196.08,45.00
           C 196.08,45.00 211.41,62.72 211.41,62.72
             215.54,68.31 220.62,76.51 223.05,83.00
             233.26,110.33 231.01,148.81 201.00,162.50
             194.33,165.54 185.43,169.16 178.00,167.73
             178.00,167.73 160.59,161.31 160.59,161.31
             158.99,160.83 157.54,161.36 155.99,161.31
             150.64,162.01 145.18,159.12 146.43,153.00
             146.43,153.00 154.58,136.00 154.58,136.00
             154.58,136.00 157.72,126.00 157.72,126.00
             157.72,126.00 161.89,117.00 161.89,117.00
             161.89,117.00 164.44,108.00 164.44,108.00
             164.44,108.00 171.13,85.00 171.13,85.00
             174.50,71.51 175.15,62.82 175.00,49.00
             174.93,42.93 172.96,40.19 179.02,36.74
             188.07,34.57 190.50,38.95 196.08,45.00 Z
           M 190.78,82.00
           C 190.78,82.00 187.71,114.00 187.71,114.00
             187.71,114.00 177.00,156.00 177.00,156.00
             181.55,155.53 185.81,153.93 190.00,152.13
             201.77,147.06 206.57,140.93 210.82,129.00
             210.82,129.00 213.67,120.00 213.67,120.00
             216.39,104.34 210.99,85.65 203.63,72.00
             200.59,66.38 197.73,60.39 193.00,56.00
             190.61,61.96 190.89,75.23 190.78,82.00 Z
           M 330.28,108.39
           C 330.28,108.39 300.00,132.04 300.00,132.04
             289.41,142.12 278.05,155.97 271.26,169.00
             271.26,169.00 255.53,202.88 255.53,202.88
             251.59,208.48 240.54,208.25 237.18,201.94
             234.63,197.17 238.06,192.38 239.68,188.00
             239.68,188.00 242.97,177.00 242.97,177.00
             248.85,153.23 253.67,129.14 261.86,106.00
             263.69,100.82 267.94,89.48 270.68,85.15
             272.44,82.37 275.77,80.98 278.40,83.60
             282.44,87.60 278.13,97.47 277.04,102.00
             277.04,102.00 275.22,111.00 275.22,111.00
             275.22,111.00 268.58,134.00 268.58,134.00
             267.38,139.36 265.70,144.55 267.00,150.00
             277.13,127.63 297.09,115.67 317.00,103.60
             323.41,99.71 333.35,92.07 341.00,93.00
             339.79,101.41 336.20,102.91 330.28,108.39 Z
           M 23.00,183.58
           C 16.13,178.39 7.44,165.95 8.10,157.00
             9.17,142.37 26.74,137.35 39.00,137.75
             44.06,137.91 49.25,138.21 54.00,140.13
             64.27,144.27 75.05,158.64 74.81,170.00
             74.72,174.12 71.31,181.28 69.36,185.00
             65.81,191.79 63.66,195.46 56.00,198.00
             60.54,207.49 63.21,216.69 65.34,227.00
             65.34,227.00 67.28,238.99 67.28,238.99
             68.82,244.11 72.73,244.42 73.93,248.18
             75.28,252.37 72.14,253.68 69.00,255.00
             69.56,256.09 70.08,256.63 70.40,258.00
             72.19,265.62 62.22,264.16 59.57,266.56
             54.78,270.90 62.46,275.33 66.00,276.47
             66.00,276.47 72.00,278.00 72.00,278.00
             77.69,264.78 82.75,256.66 91.00,245.00
             67.52,235.68 68.70,204.12 83.00,196.00
             81.82,193.65 80.03,190.73 80.42,188.00
             80.88,184.82 84.35,181.79 86.12,179.00
             91.62,170.36 97.32,162.97 107.00,158.44
             113.46,155.42 116.42,159.48 115.35,162.82
             114.23,166.30 103.03,173.73 100.29,178.09
             96.02,184.87 101.62,187.95 98.96,192.87
             96.73,197.00 92.69,195.24 88.35,205.00
             87.20,207.59 86.23,211.21 85.67,214.00
             83.47,224.76 91.73,232.38 101.00,236.24
             101.00,236.24 117.00,241.00 117.00,241.00
             114.53,247.83 112.48,245.32 108.75,249.41
             108.75,249.41 100.58,262.04 100.58,262.04
             100.58,262.04 90.52,280.00 90.52,280.00
             78.95,301.27 70.00,322.32 74.08,347.00
             74.64,350.39 75.21,354.89 76.48,358.00
             81.03,369.08 90.01,369.93 95.91,374.71
             100.32,378.27 103.02,383.80 105.00,389.00
             109.19,384.85 113.27,380.58 119.00,378.61
             128.13,375.46 129.26,377.94 137.00,380.22
             145.78,382.80 150.67,382.61 159.00,388.63
             163.74,392.06 170.06,401.45 175.00,401.75
             180.12,402.06 192.16,397.18 194.34,391.98
             195.52,389.18 195.00,383.26 195.00,380.00
             195.00,380.00 195.00,360.00 195.00,360.00
             195.17,345.70 199.51,327.02 197.00,313.00
             201.91,312.00 206.10,314.28 207.80,319.17
             207.80,319.17 210.00,347.00 210.00,347.00
             222.66,334.35 234.34,325.03 253.00,325.00
             257.57,324.99 264.05,324.41 267.98,326.85
             275.98,331.83 271.97,339.86 271.94,344.00
             271.90,348.38 274.79,350.41 274.79,355.00
             274.79,359.27 272.19,361.55 272.09,365.00
             271.84,373.74 282.79,381.08 273.38,388.90
             271.92,390.11 269.66,391.47 267.99,392.41
             265.72,393.67 264.58,394.28 262.00,394.82
             248.73,397.56 242.78,388.50 232.00,384.00
             232.00,384.00 233.00,379.87 233.00,379.87
             238.43,381.81 253.43,387.24 256.79,379.87
             258.58,375.75 253.00,371.33 251.74,365.00
             250.43,360.24 252.00,358.21 251.74,355.00
             251.74,355.00 251.19,349.00 251.19,349.00
             251.19,349.00 252.00,339.00 252.00,339.00
             243.41,340.17 238.53,343.34 232.01,349.00
             229.04,351.59 224.36,356.60 221.00,358.07
             218.17,359.30 214.09,359.00 211.00,359.00
             211.00,369.33 211.21,379.75 212.58,390.00
             213.12,394.08 213.94,400.26 210.69,403.37
             205.77,408.06 186.21,415.35 179.00,416.05
             173.41,416.87 171.65,415.32 169.00,416.05
             165.16,416.72 162.22,421.34 157.00,422.58
             152.44,423.66 147.65,421.38 143.00,421.26
             137.55,420.76 135.22,422.38 131.00,421.26
             131.00,421.26 126.17,419.69 126.17,419.69
             122.33,418.57 121.91,420.66 118.00,420.40
             110.64,419.89 105.35,412.65 104.00,406.00
             97.06,412.05 90.10,421.79 80.00,422.51
             71.98,423.08 69.84,420.06 64.00,416.58
             59.56,413.93 56.11,415.97 52.51,411.77
             45.19,403.23 51.68,387.61 59.02,381.21
             62.79,377.91 66.38,376.61 71.00,375.00
             67.99,370.77 64.56,366.71 62.32,362.00
             56.98,350.74 56.98,339.11 57.00,327.00
             57.03,309.02 65.12,297.36 67.00,287.00
             55.54,287.00 40.57,283.95 41.78,269.00
             42.17,264.30 43.95,261.84 44.56,259.00
             44.77,256.20 43.70,253.87 44.56,251.02
             47.06,244.75 52.76,246.69 51.56,238.00
             51.56,238.00 41.81,204.00 41.81,204.00
             40.82,199.53 38.13,197.23 38.57,194.04
             39.33,188.57 46.01,188.80 50.45,182.82
             58.29,172.26 55.62,168.47 54.00,157.20
             51.09,157.00 44.52,156.83 42.00,157.20
             35.53,158.85 30.29,164.07 33.01,171.00
             33.57,172.42 34.43,173.78 35.39,174.96
             36.89,176.78 38.15,177.64 40.00,179.00
             36.83,187.62 30.19,189.01 23.00,183.58 Z
           M 23.02,150.13
           C 21.88,152.13 22.03,154.77 22.00,157.00
             22.00,157.00 33.00,150.44 33.00,150.44
             33.00,150.44 41.00,147.00 41.00,147.00
             35.59,144.78 26.46,144.14 23.02,150.13 Z
           M 174.02,187.00
           C 171.74,184.55 166.74,179.45 166.54,176.04
             166.29,171.92 171.82,168.49 177.92,174.33
             183.87,180.03 191.78,189.84 195.91,197.00
             198.95,202.26 198.64,205.41 200.58,207.70
             203.89,211.60 213.63,211.18 214.42,217.01
             215.13,222.17 208.38,222.29 205.00,222.20
             202.99,222.15 201.19,221.91 199.37,223.02
             196.57,224.74 190.80,232.69 192.02,236.00
             192.71,237.86 197.00,242.14 198.54,244.00
             198.54,244.00 212.00,260.00 212.00,260.00
             212.00,260.00 218.55,232.00 218.55,232.00
             219.73,226.17 222.78,212.08 228.13,209.02
             230.20,207.84 234.50,207.94 237.00,207.75
             244.41,207.20 256.15,209.15 263.00,212.02
             266.84,213.63 270.46,215.64 271.56,220.00
             272.45,223.59 270.56,228.70 269.13,232.00
             269.13,232.00 253.91,257.00 253.91,257.00
             251.29,261.22 243.52,273.59 239.70,275.83
             238.04,276.80 236.81,276.79 235.00,277.00
             235.42,286.18 238.34,292.85 231.61,300.96
             229.61,303.38 227.03,305.40 224.00,306.35
             221.10,307.26 215.24,306.99 212.00,307.00
             204.64,307.01 195.14,310.19 189.64,303.78
             185.44,298.89 183.62,289.93 186.44,284.00
             187.78,281.19 191.11,277.60 191.46,275.58
             191.84,273.39 190.08,271.00 189.70,268.00
             189.17,263.88 189.95,260.46 194.00,259.00
             191.84,255.97 184.90,247.58 181.91,245.70
             178.42,243.51 175.77,244.46 173.43,242.40
             170.31,239.65 172.68,237.47 167.90,232.00
             167.90,232.00 150.57,215.99 150.57,215.99
             146.21,209.98 149.97,206.07 155.00,206.59
             159.85,207.09 166.13,212.37 169.72,215.50
             169.72,215.50 181.00,225.00 181.00,225.00
             181.64,223.55 183.11,220.77 182.91,219.22
             182.58,216.59 179.03,215.79 177.00,214.91
             173.79,213.52 169.89,211.29 168.37,207.96
             166.84,204.59 168.75,202.33 172.02,201.43
             176.22,200.29 181.21,202.34 185.00,204.00
             182.95,196.98 178.92,192.26 174.02,187.00 Z
           M 237.23,240.44
           C 232.98,236.93 233.92,232.08 239.02,230.06
             243.45,228.52 247.52,231.90 250.44,230.06
             251.63,229.14 252.26,227.39 252.47,226.02
             253.25,220.88 248.71,221.05 245.00,221.00
             245.00,221.00 230.00,221.00 230.00,221.00
             227.95,230.07 223.98,242.72 223.31,251.72
             222.78,258.84 223.69,263.47 231.00,266.00
             231.00,266.00 236.00,257.00 236.00,257.00
             229.31,255.91 227.03,251.08 231.10,248.11
             236.13,244.44 239.81,250.54 245.00,243.00
             242.28,242.61 239.43,242.26 237.23,240.44 Z
           M 201.00,266.00
           C 207.80,275.20 210.42,270.06 215.00,282.00
             206.72,284.58 202.30,283.36 200.00,293.00
             202.67,291.67 204.89,290.16 208.00,290.75
             210.99,291.32 213.76,294.15 216.94,292.85
             222.93,290.39 222.14,275.68 219.40,272.88
             215.33,268.71 207.92,267.70 203.00,265.00
             203.00,265.00 201.00,266.00 201.00,266.00 Z
           M 88.94,392.00
           C 89.18,385.36 86.98,379.36 79.17,381.97
             77.60,382.49 76.19,383.34 74.84,384.27
             72.75,385.70 71.13,387.05 69.53,389.04
             67.29,391.84 66.70,393.59 66.00,397.00
             72.23,396.76 76.12,398.24 79.00,404.00
             85.12,402.67 88.72,398.34 88.94,392.00 Z
           M 133.09,397.12
           C 129.51,394.77 126.00,388.63 121.06,391.65
             119.46,392.62 118.25,394.28 117.60,396.00
             117.09,397.36 117.11,398.60 117.00,400.00
             120.47,399.30 124.64,397.69 128.00,399.21
             131.29,400.71 133.23,404.05 136.28,405.47
             136.28,405.47 154.00,410.00 154.00,410.00
             154.59,407.56 155.36,404.80 154.51,402.32
             152.70,397.04 142.94,394.45 138.00,394.00
             138.00,394.00 138.00,399.00 138.00,399.00
             135.90,398.48 134.99,398.36 133.09,397.12 Z" />
</svg>
